
<svg width="21px" height="22px" viewBox="0 0 21 22" version="1.1" xmlns="http://www.w3.org/2000/svg" xmlns:xlink="http://www.w3.org/1999/xlink">
    <g id="Page-1" stroke="none" stroke-width="1" fill="none" fill-rule="evenodd" fill-opacity="0.61">
        <g id="LOGIN-Copy-3" transform="translate(-678.000000, -183.000000)" fill="#989898" stroke="#FFFFFF" stroke-width="0.6">
            <g id="open-folder-card" transform="translate(629.000000, 131.000000)">
                <g id="Group-11" transform="translate(49.000000, 38.000000)">
                    <g id="Search" transform="translate(0.000000, 10.000000)">
                        <path d="M19.7729415,23.488403 L19.7731905,23.4886631 L15.4001536,18.9255455 L15.5537312,18.7217088 C16.732008,17.1578348 17.3842307,15.2392319 17.3842307,13.2216192 C17.3842307,8.29760045 13.549194,4.296 8.84268182,4.296 C4.13520594,4.296 0.3,8.29742307 0.3,13.2216192 C0.3,18.1448524 4.13536814,22.1461055 8.84268182,22.1461055 C10.6330199,22.1461055 12.3445746,21.5585149 13.7878028,20.483434 L14.0003001,20.3251419 L14.1836268,20.5164606 L18.4195003,24.9369953 C18.6030445,25.128117 18.8445898,25.2299979 19.0970205,25.2299979 C19.348424,25.2299979 19.5899447,25.1280324 19.7731695,24.9372437 C20.1548629,24.5388786 20.1548629,23.887884 19.7729415,23.488403 Z M2.22534757,13.2216192 C2.22534757,9.42558719 5.19115812,6.33237676 8.84268182,6.33237676 C12.493809,6.33237676 15.4577502,9.42516895 15.4577502,13.2216192 C15.4577502,17.017869 12.493999,20.1097287 8.84268182,20.1097287 C5.19096797,20.1097287 2.22534757,17.0174509 2.22534757,13.2216192 Z" id="search-icon"></path>
                    </g>
                </g>
            </g>
        </g>
    </g>
</svg>