<svg width="19px" height="19px" viewBox="0 0 19 19" version="1.1" xmlns="http://www.w3.org/2000/svg" xmlns:xlink="http://www.w3.org/1999/xlink">
    <g id="Page-1" stroke="none" stroke-width="1" fill="none" fill-rule="evenodd">
        <g id="LOGIN-Copy-9" transform="translate(-315.000000, -186.000000)" fill="#8E8E93">
            <g id="search" transform="translate(297.000000, 171.000000)">
                <path d="M31.9748484,27.3869383 C31.89711,27.3091665 31.5272777,27.6902474 31.4495393,27.6124755 C31.3521747,27.5150689 31.4495393,26.8614029 31.4495393,26.8614029 C32.3820011,25.5895674 32.8815172,24.0519486 32.8745526,22.4749037 C32.8567607,18.3582933 29.5272941,15.0238522 25.410876,15.0000756 C23.4409379,14.9911624 21.5492548,15.7705042 20.1572402,17.1644856 C18.7652257,18.5584669 17.9885118,20.4512924 18.0001285,22.421294 C18.0179204,26.5382792 21.3476907,29.8730241 25.4644836,29.8968007 C27.0478908,29.9036636 28.5910665,29.3982971 29.8637031,28.4561234 L29.8691318,28.4520518 C29.8691318,28.4520518 30.4696396,28.3585482 30.5630907,28.4520518 C30.6330857,28.5220861 30.2924643,28.8756222 30.3680549,28.9512552 C32.0624444,30.6465963 35.0663587,33.6521978 35.0663587,33.6521978 C35.3473562,33.9470019 35.7660616,34.0663316 36.1602462,33.9639523 C36.5544309,33.8615731 36.8621568,33.5535716 36.9641946,33.159284 C37.0662325,32.7649963 36.9465491,32.3463767 36.6515163,32.0656205 C36.6515163,32.0656205 33.5337377,28.9464991 31.9748484,27.3869383 Z M25.459055,28.4065853 C22.1658006,28.38764 19.5020276,25.7201296 19.4875709,22.4267228 C19.4786823,20.8509257 20.1001045,19.3369694 21.2135065,18.2218667 C22.3269085,17.1067639 23.8398794,16.4830667 25.415626,16.4896124 C28.7088804,16.5085577 31.3726534,19.1760681 31.3871102,22.4694749 C31.3959987,24.0452721 30.7745765,25.5592283 29.6611745,26.674331 C28.5477725,27.7894338 27.0348016,28.413131 25.459055,28.4065853 Z" id="Search"></path>
            </g>
        </g>
    </g>
</svg>