
<svg width="78px" height="78px" viewBox="0 0 78 78" version="1.1" xmlns="http://www.w3.org/2000/svg" xmlns:xlink="http://www.w3.org/1999/xlink">
    <defs>
        <linearGradient x1="50%" y1="0%" x2="50%" y2="100%" id="linearGradient-1">
            <stop stop-color="#84CFFF" offset="0%"></stop>
            <stop stop-color="#4DA1FF" offset="100%"></stop>
        </linearGradient>
    </defs>
    <g id="Page-1" stroke="none" stroke-width="1" fill="none" fill-rule="evenodd">
        <g id="LOGIN-Copy-11" transform="translate(-749.000000, -302.000000)" fill="url(#linearGradient-1)">
            <path d="M753,302 L823,302 C825.209139,302 827,303.790861 827,306 L827,376 C827,378.209139 825.209139,380 823,380 L753,380 C750.790861,380 749,378.209139 749,376 L749,306 C749,303.790861 750.790861,302 753,302 Z M759.265857,341.710234 L755.030759,364.57771 C758.775009,362.947875 762.081906,363.513502 764.95145,366.27459 L769.239725,342.945405 C770.64586,337.568178 759.856665,335.465701 759.265857,341.710234 Z M773.730638,341.521002 C772.771818,341.521002 771.947897,342.201468 771.766683,343.143008 L767.17594,366.995245 L808.978088,366.995245 L804.352142,343.140256 C804.169809,342.200006 803.346484,341.521002 802.388718,341.521002 L773.730638,341.521002 Z M773.632398,362.658448 L801.051416,362.658448 C801.603701,362.658448 802.051416,363.106163 802.051416,363.658448 C802.051416,363.682532 802.050546,363.706608 802.048808,363.73063 L802.029867,363.992352 C801.992024,364.515263 801.556753,364.920171 801.032475,364.920171 L772.551407,364.920171 C772.309589,364.920171 772.087819,364.834338 771.9149,364.691478 C771.429368,364.534219 771.13855,364.034535 771.245293,363.532348 L775.345721,344.241353 C775.460547,343.701137 775.991564,343.35629 776.53178,343.471117 C776.55652,343.476375 776.581052,343.482571 776.605323,343.48969 L776.752799,343.532946 C777.254545,343.680114 777.558206,344.188976 777.449492,344.700433 L773.632398,362.658448 Z M800.264645,343.641227 C800.383762,343.76921 800.470837,343.930093 800.509924,344.113532 L803.842152,359.751869 C803.95228,360.268705 803.641274,360.782014 803.132176,360.923671 L802.984194,360.964847 C802.96446,360.970338 802.944562,360.975222 802.924529,360.97949 C802.384371,361.094588 801.853181,360.750008 801.738084,360.209849 L798.580645,345.39181 L791.533521,345.426636 C790.981243,345.429365 790.531321,344.983868 790.528591,344.43159 C790.528504,344.413945 790.528884,344.3963 790.52973,344.378676 L790.536996,344.227403 C790.562504,343.696291 790.999184,343.278015 791.530903,343.275388 L799.455882,343.236224 C799.787063,343.234588 800.081437,343.394131 800.264645,343.641227 Z M782.121204,351.536866 L782.267225,351.583607 C782.781897,351.748351 783.072581,352.292179 782.923628,352.811641 L781.0685,359.281242 C780.916269,359.812132 780.362491,360.119096 779.831601,359.966866 C779.821816,359.96406 779.812074,359.961105 779.802379,359.958002 L779.656359,359.911261 C779.141687,359.746517 778.851002,359.202689 778.999956,358.683227 L780.855084,352.213626 C781.007314,351.682736 781.561093,351.375772 782.091983,351.528002 C782.101768,351.530808 782.11151,351.533763 782.121204,351.536866 Z M798.190973,352.583734 L798.183684,352.735505 C798.158084,353.268526 797.71847,353.687533 797.184835,353.687533 L788.065163,353.687533 C787.512878,353.687533 787.065163,353.239817 787.065163,352.687533 C787.065163,352.671535 787.065547,352.65554 787.066314,352.63956 L787.073603,352.487789 C787.099203,351.954768 787.538817,351.535761 788.072452,351.535761 L797.192124,351.535761 C797.744409,351.535761 798.192124,351.983476 798.192124,352.535761 C798.192124,352.551759 798.19174,352.567754 798.190973,352.583734 Z M781.818406,321.382785 C781.804258,321.433852 781.790961,321.485173 781.77853,321.536736 L781.728108,322.905716 C781.962071,326.191299 784.926281,329.016447 788.136734,328.904746 C791.347187,328.793045 794.089556,326.535559 794.359758,322.904746 C794.359758,322.312399 794.359758,321.856396 794.359758,321.536736 C794.359758,321.485167 794.358445,321.433846 794.35585,321.382785 L781.818406,321.382785 Z M788.136734,334.245403 C784.414426,334.245403 778.953716,335.609873 776.205076,339.382785 L799.980313,339.382785 C797.332452,336.382785 791.859042,334.245403 788.136734,334.245403 Z M788.094044,308 C787.541759,308 787.094044,308.447715 787.094044,309 L787.094044,314.727738 L789.094044,314.727738 L789.094044,309 C789.094044,308.447715 788.646329,308 788.094044,308 Z M780.831323,317.000644 C780.173513,317.000644 779.640253,317.533905 779.640253,318.191715 C779.640253,318.849525 780.173513,319.382785 780.831323,319.382785 L795.449183,319.382785 C796.106993,319.382785 796.640253,318.849525 796.640253,318.191715 C796.640253,317.533905 796.106993,317.000644 795.449183,317.000644 L780.831323,317.000644 Z M791.321163,314.873085 L794.443376,314.873085 C794.245202,312.65834 793.06134,310.857765 791.321163,309.894747 L791.321163,314.873085 Z M784.79744,314.873085 L784.79744,310.13365 C783.274025,311.144264 782.303441,312.842434 782.128579,314.873085 L784.79744,314.873085 Z M755.535793,366.90728 C752.793632,368.843509 754.320285,371.280304 755.535793,372.382785 C755.542898,371.554929 754.917703,368.4701 758.033077,367.363223 C758.32727,367.258697 760.28454,367.258697 760.744899,368.166634 C763.069456,371.170721 757.883887,373.259919 758.584449,369.456911 C756.098691,371.985938 759.240956,373.701925 760.05571,373.657367 C760.69502,373.622405 761.309424,373.497021 761.837825,373.259919 C763.79259,372.382785 765.442681,370.642834 763.640253,368.078437 C761.837825,365.514041 758.277954,364.971051 755.535793,366.90728 Z M816.906737,341.506278 C816.315928,335.261746 805.526734,337.364222 806.932869,342.741449 L811.221144,366.070635 C814.090688,363.309546 817.397585,362.74392 821.141835,364.373754 L816.906737,341.506278 Z M820.606446,366.790108 C817.864285,364.853879 814.304413,365.396869 812.501985,367.961266 C810.699558,370.525662 812.349648,372.265613 814.304413,373.142747 C814.832815,373.379849 815.447219,373.505233 816.086529,373.540196 C816.901283,373.584753 820.043548,371.868767 817.557789,369.339739 C818.258352,373.142747 813.072782,371.053549 815.39734,368.049462 C815.857698,367.141526 817.814969,367.141526 818.109162,367.246051 C821.224536,368.352928 820.599341,371.437757 820.606446,372.265613 C821.821953,371.163133 823.348607,368.726337 820.606446,366.790108 Z" id="Combined-Shape"></path>
        </g>
    </g>
</svg>